# xmcd
#
# Track frame offsets:
#	150
#	15002
#	26255
#	39737
#	53445
#	64927
#	78892
#	89200
#	101140
#	112287
#	124302
#	136457
#	146877
#	160240
#
# Disc length: 2287 seconds
#
# Revision: 0
# Processed by: cddbd v1.5.1PL0 Copyright (c) Steve Scherf et al.
# Submitted via: dBpowerAMP V4.0
#
DISCID=c108ed0e
DTITLE=Voces Del Rancho - Mas Fuertes Que Nunca
DYEAR=2001
DGENRE=Latin
TTITLE0=El Albanil.
TTITLE1=El Manoso.
TTITLE2=Me La Paso Noviando.
TTITLE3=Dos Monedas.
TTITLE4=Una Palomita.
TTITLE5=El Pata De Palo.
TTITLE6=Conecta De Billete.
TTITLE7=Eleazar Del Fierro.
TTITLE8=Chaparrita De Mi Vida.
TTITLE9=Yo Se' Que Me Quieres.
TTITLE10=Graduado Para Pelarme.
TTITLE11=Gallos Cargados.
TTITLE12=Maquina 501.
TTITLE13=La Fuga Del Chapo.
EXTD=
EXTT0=
EXTT1=
EXTT2=
EXTT3=
EXTT4=
EXTT5=
EXTT6=
EXTT7=
EXTT8=
EXTT9=
EXTT10=
EXTT11=
EXTT12=
EXTT13=
PLAYORDER=
